<svg width="40" height="40" viewBox="0 0 40 40" fill="none" xmlns="http://www.w3.org/2000/svg">
<path fill-rule="evenodd" clip-rule="evenodd" d="M26.5947 4.99634C23.1644 3.29023 20.2331 1.84879 20.0807 1.79316C19.7079 1.65703 18.8094 1.62287 18.418 1.72988C17.5815 1.95868 16.8365 2.5521 16.4868 3.26811C16.1461 3.96578 16.136 4.04246 16.1129 6.12263L16.0919 7.99702L16.8009 8.35213C17.1908 8.54747 17.5205 8.70728 17.5336 8.70728C17.5467 8.70728 17.564 7.72671 17.5721 6.52817L17.5867 4.34905L17.7195 4.06589C17.8984 3.68433 18.1684 3.3975 18.5027 3.2339C18.731 3.1223 18.8468 3.09872 19.1575 3.10073L19.5349 3.10315L21.6091 4.12565C26.6487 6.60999 32.1054 9.35865 32.194 9.45756C32.2549 9.52542 32.299 9.66564 32.3132 9.83614C32.3341 10.0887 32.3242 10.1188 32.1661 10.2839C31.9727 10.4858 26.2239 14.4656 25.8696 14.6429C25.5844 14.7856 25.1495 14.8361 24.8515 14.761C24.7288 14.7301 21.4342 13.1158 17.5302 11.1736C13.6263 9.23148 10.2961 7.59561 10.1298 7.53842C9.71316 7.39513 8.97624 7.36218 8.53049 7.46698C7.37841 7.73779 6.47769 8.69217 6.25015 9.88315C6.13881 10.4657 6.13891 20.343 6.25021 20.8751C6.36936 21.4444 6.68341 22.0191 7.09988 22.4298L7.45665 22.7817L13.882 25.9792C17.416 27.7379 20.4321 29.2216 20.5846 29.2762C20.9747 29.4162 21.765 29.4498 22.2094 29.3454C22.5867 29.2567 23.0605 29.0352 23.4061 28.7859C23.5308 28.6959 24.8911 27.7553 26.4291 26.6957C27.9671 25.6362 29.3116 24.6866 29.4171 24.5856C29.8187 24.2006 30.1072 23.5684 30.1072 23.0729C30.1072 22.7587 29.9842 22.3009 29.8177 21.995C29.5642 21.5291 29.2931 21.3444 27.7643 20.5957C26.9884 20.2158 24.9705 19.2191 23.2801 18.3808C17.798 15.6625 16.6474 15.1061 16.5082 15.1061C16.3297 15.1061 16.1628 15.2654 16.1261 15.4712C16.11 15.5613 16.1033 17.2902 16.1112 19.3132L16.1256 22.9912L16.8435 23.3578L17.5615 23.7245V20.4482C17.5615 18.377 17.5794 17.1718 17.6101 17.1718C17.6369 17.1718 20.0912 18.3811 23.0642 19.8592C28.0829 22.3544 28.6053 22.5936 28.6469 22.8984C28.6545 22.9541 28.646 23.0121 28.646 23.0864C28.646 23.2682 28.6166 23.3488 28.5075 23.4668C28.4312 23.5491 27.2579 24.3804 25.9001 25.3141L22.8236 27.4296C22.0857 27.9372 21.757 28.0528 21.2965 27.9672C20.8745 27.8887 8.40292 21.6854 8.12273 21.4146C8.01642 21.3118 7.86905 21.1144 7.79524 20.9758L7.66101 20.7239V15.3832V10.0425L7.82033 9.74016C8.17775 9.06209 8.83476 8.71106 9.48542 8.85058C9.63537 8.88277 12.567 10.3138 16.835 12.4384C20.74 14.3822 24.0598 16.0184 24.2122 16.0744C24.6087 16.2199 25.488 16.2549 25.9262 16.1427C26.4237 16.0154 26.6844 15.8751 27.588 15.2485C28.0452 14.9313 29.4509 13.961 30.7118 13.0922C31.9726 12.2233 33.0976 11.4168 33.2117 11.3C33.6436 10.8576 33.8509 10.1798 33.7442 9.55797C33.6642 9.09126 33.4831 8.74976 33.1262 8.39294C32.8399 8.10655 32.6583 8.01213 26.5947 4.99634ZM7.63582 25.3347L6.9311 24.9817C6.54354 24.7875 6.21479 24.6287 6.20053 24.6287C6.14636 24.6287 6.17392 35.9426 6.22889 36.2456C6.31182 36.7031 6.5833 37.2209 6.91795 37.56C7.7112 38.3637 8.9056 38.5621 9.90311 38.0557C10.3273 37.8404 16.3756 33.639 16.6573 33.3639C16.985 33.0441 17.2221 32.6716 17.3992 32.1985C17.5096 31.9036 17.5294 31.7547 17.5499 31.0686L17.5734 30.2783L16.8609 29.9214C16.371 29.676 16.1414 29.5844 16.1262 29.6284C16.114 29.6635 16.0975 30.1458 16.0896 30.7C16.0752 31.7031 16.0745 31.7089 15.9306 31.9685C15.8511 32.112 15.7264 32.285 15.6535 32.353C15.4869 32.5083 9.56624 36.5901 9.25255 36.7659C8.70371 37.0734 7.96392 36.8042 7.71407 36.2061C7.64499 36.0407 7.63582 35.3923 7.63582 30.6768V25.3347Z" fill="#0B0B0B"/>
</svg>
